# AST/ASF file generated using VICON BodyLanguage
# -----------------------------------------------
:version 1.10
:name VICON
:units
  mass 1.0
  length 0.45
  angle deg
:documentation
   .ast/.asf automatically generated from VICON data using
   VICON BodyBuilder and BodyLanguage model FoxedUp or BRILLIANT.MOD
:root
   order TX TY TZ RX RY RZ
   axis XYZ
   position 0 0 0  
   orientation 0 0 0 
:bonedata
  begin
     id 1 
     name lhipjoint
     direction 0.521689 -0.742065 0.420928 
     length 2.47002 
     axis 0 0 0  XYZ
  end
  begin
     id 2 
     name lfemur
     direction 0.34202 -0.939693 0  
     length 7.24654  
     axis 0 0 20  XYZ
    dof rx ry rz
    limits (-160.0 20.0)
           (-70.0 70.0)
           (-60.0 70.0)
  end
  begin
     id 3 
     name ltibia
     direction 0.34202 -0.939693 0   
     length 8.04849   
     axis 0 0 20   XYZ
    dof rx
    limits (-10.0 170.0)
  end
  begin
     id 4 
     name lfoot
     direction 0.0745411 -0.2048 0.975961   
     length 1.72367   
     axis -90 7.62852e-016 20   XYZ
    dof rx rz
    limits (-45.0 90.0)
           (-70.0 20.0)
  end
  begin
     id 5 
     name ltoes
     direction 1.53556e-011 -4.21901e-011 1   
     length 0.87311   
     axis -90 7.62852e-016 20   XYZ
    dof rx
    limits (-90.0 20.0)
  end
  begin
     id 6 
     name rhipjoint
     direction -0.52849 -0.738415 0.418857   
     length 2.48223  
     axis 0 0 0  XYZ 
  end
  begin
     id 7 
     name rfemur
     direction -0.34202 -0.939693 0   
     length 7.15571   
     axis 0 0 -20   XYZ
    dof rx ry rz
    limits (-160.0 20.0)
           (-70.0 70.0)
           (-70.0 60.0)
  end
  begin
     id 8 
     name rtibia
     direction -0.34202 -0.939693 0   
     length 7.81659   
     axis 0 0 -20   XYZ
    dof rx
    limits (-10.0 170.0)
 end
 begin
     id 9 
     name rfoot
     direction -0.0917348 -0.252039 0.963359   
     length 1.84382  
     axis -90 -7.62852e-016 -20   XYZ
    dof rx rz
    limits (-45.0 90.0)
           (-20.0 70.0)
  end
  begin
     id 10 
     name rtoes
     direction -1.53551e-011 -4.21879e-011 1   
     length 0.927771   
     axis -90 -7.62852e-016 -20   XYZ
    dof rx
    limits (-90.0 20.0)
  end
  begin
     id 11 
     name lowerback
     direction 0.00583058 0.999822 0.0179296   
     length 2.1429   
     axis 0 0 0   XYZ
    dof rx ry rz
    limits (-20.0 45.0)
           (-30.0 30.0)
           (-30.0 30.0)
  end
  begin
     id 12 
     name upperback
     direction -0.0137999 0.999752 -0.0175071   
     length 2.14252   
     axis 0 0 0   XYZ
    dof rx ry rz
    limits (-20.0 45.0)
           (-30.0 30.0)
           (-30.0 30.0)
  end
  begin
     id 13 
     name thorax
     direction -0.0158036 0.99955 -0.0254909   
     length 2.1383   
     axis 0 0 0   XYZ
    dof rx ry rz
    limits (-20.0 45.0)
           (-30.0 30.0)
           (-30.0 30.0)
  end
  begin
     id 14 
     name lowerneck
     direction -0.0101179 0.999403 -0.0330262   
     length 1.65808   
     axis 0 0 0   XYZ
    dof rx ry rz
    limits (-20.0 45.0)
           (-30.0 30.0)
           (-30.0 30.0)
  end
  begin
     id 15 
     name upperneck
     direction 0.0497734 0.995978 -0.074501   
     length 1.5897   
     axis 0 0 0   XYZ
    dof rx ry rz
    limits (-20.0 45.0)
           (-30.0 30.0)
           (-30.0 30.0)
  end
  begin
     id 16
     name head
     direction 0.0189524 0.999519 -0.0245438  
     length 1.74024  
     axis 0 0 0   XYZ
    dof rx ry rz
    limits (-20.0 45.0)
           (-30.0 30.0)
           (-30.0 30.0)
  end
  begin
     id 17 
     name lclavicle
     direction 0.945604 0.324422 0.0241537  
     length 3.59089  
     axis 0 0 0   XYZ
    dof ry rz
    limits (-20.0 10.0)
           (0.0 20.0)
  end
  begin
     id 18 
     name lhumerus
     direction 1 -4.48964e-011 -2.63524e-027   
     length 5.2391   
     axis 180 -30 -90   XYZ
    dof rx ry rz
    limits (-60.0 90.0)
           (-90.0 90.0)
           (-90.0 90.0)
  end
  begin
     id 19
     name lradius
     direction 1 -4.48969e-011 3.86978e-028   
     length 3.31467   
     axis 180 -30 -90   XYZ
    dof rx
    limits (-10.0 170.0)
  end
  begin
     id 20
     name lwrist
     direction 1 -4.48963e-011 7.20928e-028   
     length 1.65734   
     axis -5.52449e-016 90 90   XYZ
    dof ry
    limits (-180.0 0.0)
 end
  begin
     id 21 
     name lhand
     direction 1 -4.48964e-011 1.44186e-027   
     length 0.9659   
     axis -9.20027e-016 90 90   XYZ
    dof rx rz
    limits (-90.0 90.0)
           (-45.0 45.0)
  end
  begin
     id 22 
     name lfingers
     direction 1 -4.48965e-011 2.88371e-027   
     length 0.778733   
     axis -1.84005e-015 90 90   XYZ
    dof rx
    limits (0.0 90.0)
  end
  begin
     id 23
     name lthumb
     direction 0.707107 -6.34931e-011 0.707107   
     length 1.11811   
     axis -90 45 2.85299e-015   XYZ
    dof rx rz
    limits (-45.0 45.0)
           (-45.0 45.0)
  end
  begin
     id 24 
     name rclavicle
     direction -0.923762 0.370785 0.0958234   
     length 3.54196  
     axis 0 0 0   XYZ 
    dof ry rz
    limits (-10.0 20.0)
           (-20.0 0.0)
  end
  begin
     id 25 
     name rhumerus
     direction -1 -4.48966e-011 1.18702e-017  
     length 5.30252   
     axis 180 30 90   XYZ
    dof rx ry rz
    limits (-90.0 60.0)
           (-90.0 90.0)
           (-90.0 90.0)
  end
  begin
     id 26 
     name rradius
     direction -1 -4.48966e-011 4.46736e-027   
     length 3.67875   
     axis 180 30 90   XYZ
    dof rx
    limits (-10.0 170.0)
  end
  begin
     id 27 
     name rwrist
     direction -1 -4.48966e-011 7.20928e-028   
     length 1.83937   
     axis -5.52449e-016 -90 -90   XYZ
    dof ry
    limits (-180.0 0.0)
  end
  begin
     id 28
     name rhand
     direction -1 -4.48973e-011 1.44186e-027   
     length 0.594811   
     axis -9.20027e-016 -90 -90   XYZ
    dof rx rz
    limits (-90.0 90.0)
           (-45.0 45.0)
  end
  begin
     id 29
     name rfingers
     direction -1 -4.48963e-011 2.88371e-027   
     length 0.479552   
     axis -1.84005e-015 -90 -90   XYZ
    dof rx
    limits (0.0 90.0)
  end
  begin
     id 30
     name rthumb
     direction -0.707107 -6.34932e-011 0.707107   
     length 0.688544   
     axis -90 -45 -2.85299e-015   XYZ
    dof rx rz
    limits (-45.0 45.0)
           (-45.0 45.0)
  end
:hierarchy
  begin
    root lhipjoint rhipjoint lowerback
    lhipjoint lfemur
    lfemur ltibia
    ltibia lfoot
    lfoot ltoes
    rhipjoint rfemur
    rfemur rtibia
    rtibia rfoot
    rfoot rtoes
    lowerback upperback
    upperback thorax
    thorax lowerneck lclavicle rclavicle
    lowerneck upperneck
    upperneck head
    lclavicle lhumerus
    lhumerus lradius
    lradius lwrist
    lwrist lhand lthumb
    lhand lfingers
    rclavicle rhumerus
    rhumerus rradius
    rradius rwrist
    rwrist rhand rthumb
    rhand rfingers
  end

#!OML:ASF E:\acrobat2\Project_11_07_03\Capture day 1\Session 1\Acrobat.ASF
:FULLY-SPECIFIED
:DEGREES
691
root 6.41824 18.3902 -16.9744 -346.728 6.05441 0.839806
lowerback -6.24226 0.903824 4.10258
upperback -0.574545 0.971809 -1.6208
thorax 3.00512 0.546136 -3.90126
lowerneck 0.685155 -2.14641 -0.0205096
upperneck 3.43539 -2.86175 0.080053
head 0.934217 -1.42748 0.0100248
rclavicle -8.46077e-015 -1.03865e-014
rhumerus -37.424 3.93567 -84.5336
rradius 28.293
rwrist 3.36314
rhand -6.30994 -399.572
rfingers 7.12502
rthumb 19.5344 -428.611
lclavicle -8.46077e-015 -1.03865e-014
lhumerus -26.1104 -13.5866 86.119
lradius 26.2577
lwrist 8.62646
lhand -7.46158 -12.443
lfingers 7.12502
lthumb 18.4268 376.704
rfemur -3.29859 2.89613 22.5535
rtibia 2.35853
rfoot 157.196 -197.858
rtoes 31.1527
lfemur -6.21889 -0.701941 -18.8655
ltibia 5.67974
lfoot -8.79871 -3.47188
ltoes 46.6854
692
root 6.43327 18.3838 -16.9671 -346.807 6.05373 0.828033
lowerback -6.49684 0.917498 4.00552
upperback -0.612991 0.987826 -1.62759
thorax 3.10792 0.554515 -3.84979
lowerneck 0.847464 -2.13763 -0.0807874
upperneck 3.34143 -2.85102 0.126957
head 0.87956 -1.42257 0.0367953
rclavicle -6.10642e-015 -2.62396e-014
rhumerus -37.4343 4.18655 -84.6519
rradius 28.3064
rwrist 3.38201
rhand -6.23161 -399.565
rfingers 7.12502
rthumb 19.6097 -428.596
lclavicle -6.10642e-015 -2.62396e-014
lhumerus -26.0322 -13.485 86.1169
lradius 26.5848
lwrist 8.46693
lhand -7.73564 -12.1705
lfingers 7.12502
lthumb 18.1632 377.001
rfemur -3.16504 3.02983 22.5473
rtibia 2.38292
rfoot 154.528 -197.009
rtoes 38.9101
lfemur -5.98738 -0.594074 -18.9187
ltibia 5.52109
lfoot -8.81913 -3.61178
ltoes 46.4996
693
root 6.44752 18.3758 -16.9631 -346.878 5.97488 0.724929
lowerback -6.67273 0.987478 4.00284
upperback -0.771933 1.07721 -1.65756
thorax 3.05079 0.594991 -3.87012
lowerneck 1.2464 -2.11713 -0.105139
upperneck 3.34035 -2.82784 0.300274
head 0.815803 -1.40993 0.0981053
rclavicle -1.48343e-014 1.23246e-014
rhumerus -37.6768 4.08257 -84.753
rradius 28.4842
rwrist 3.50496
rhand -5.93893 -400.236
rfingers 7.12502
rthumb 19.8911 -429.238
lclavicle -1.48343e-014 1.23246e-014
lhumerus -26.1384 -13.4495 86.0986
lradius 26.9013
lwrist 8.41898
lhand -7.78753 -12.1508
lfingers 7.12502
lthumb 18.1133 377.026
rfemur -3.06205 3.24221 22.6373
rtibia 2.37434
rfoot 157.67 -198.056
rtoes 28.2225
lfemur -5.77695 -0.474931 -18.859
ltibia 5.31497
lfoot -8.82516 -3.74512
ltoes 47.0675
694
root 6.46012 18.3668 -16.9591 -346.985 5.87231 0.640277
lowerback -6.7903 1.04721 4.03026
upperback -0.86055 1.15379 -1.73482
thorax 3.03431 0.631948 -3.95815
lowerneck 1.15365 -2.15016 -0.0203255
upperneck 3.46651 -2.87403 0.372151
head 0.87018 -1.43105 0.103973
rclavicle -1.78782e-014 3.598e-014
rhumerus -37.7242 3.90649 -84.9025
rradius 28.6449
rwrist 3.58472
rhand -5.92942 -400.507
rfingers 7.12502
rthumb 19.9002 -429.508
lclavicle -1.78782e-014 3.598e-014
lhumerus -26.2291 -13.6869 86.0538
lradius 27.284
lwrist 8.5971
lhand -8.00365 -12.5072
lfingers 7.12502
lthumb 17.9053 376.689
rfemur -2.8866 3.26811 22.6943
rtibia 2.30199
rfoot 157.791 -198.038
rtoes 27.6226
lfemur -5.53382 -0.429197 -18.8206
ltibia 5.11497
lfoot -8.95672 -3.83626
ltoes 47.4039
695
root 6.4726 18.3595 -16.9532 -347.128 5.8426 0.555891
lowerback -6.97055 1.10071 3.99945
upperback -0.838469 1.221 -1.74717
thorax 3.1644 0.668483 -3.94481
lowerneck 0.950648 -2.21319 0.0271819
upperneck 3.44031 -2.95814 0.357622
head 0.895192 -1.47252 0.089167
rclavicle 2.10215e-014 1.02374e-014
rhumerus -37.678 3.86414 -84.9538
rradius 28.8455
rwrist 3.55334
rhand -5.8995 -400.426
rfingers 7.12502
rthumb 19.929 -429.424
lclavicle 2.10215e-014 1.02374e-014
lhumerus -26.1716 -14.0618 86.1591
lradius 27.7291
lwrist 8.76055
lhand -7.95171 -12.2769
lfingers 7.12502
lthumb 17.9553 376.914
rfemur -2.65777 3.23565 22.7695
rtibia 2.27562
rfoot 157.765 -197.968
rtoes 27.0857
lfemur -5.26284 -0.505622 -18.7743
ltibia 4.95616
lfoot -9.1953 -3.83289
ltoes 47.5159
696
root 6.48545 18.3529 -16.9523 -347.173 5.90968 0.393538
lowerback -7.20192 1.11567 3.95295
upperback -0.887154 1.23268 -1.63952
thorax 3.24102 0.673754 -3.80242
lowerneck 0.942224 -2.27093 -0.0558719
upperneck 3.44421 -3.03575 0.375754
head 0.899612 -1.51211 0.107654
rclavicle 1.65985e-014 5.56597e-015
rhumerus -37.7546 4.15968 -84.9844
rradius 29.0413
rwrist 3.42238
rhand -5.65666 -400.53
rfingers 7.12502
rthumb 20.1624 -429.504
lclavicle 1.65985e-014 5.56597e-015
lhumerus -26.1207 -13.9616 86.3119
lradius 28.1355
lwrist 9.00695
lhand -6.67225 -11.0682
lfingers 7.12502
lthumb 19.186 378.005
rfemur -2.58827 3.22408 22.9457
rtibia 2.26176
rfoot 157.659 -197.893
rtoes 27.0604
lfemur -5.16236 -0.446769 -18.5976
ltibia 4.87125
lfoot -9.29838 -3.90212
ltoes 47.0178
697
root 6.50011 18.3461 -16.9535 -347.204 5.93845 0.221416
lowerback -7.33838 1.1123 4.01734
upperback -0.975272 1.21746 -1.60227
thorax 3.22486 0.664745 -3.80049
lowerneck 0.785428 -2.27362 -0.147484
upperneck 3.62418 -3.04441 0.520333
head 0.98575 -1.51551 0.163289
rclavicle 5.46658e-016 -9.93923e-015
rhumerus -37.7499 4.46572 -85.1808
rradius 29.0087
rwrist 3.44002
rhand -5.69052 -400.363
rfingers 7.12502
rthumb 20.1298 -429.34
lclavicle 5.46658e-016 -9.93923e-015
lhumerus -26.0902 -13.6637 86.26
lradius 28.4711
lwrist 9.18709
lhand -7.42649 -13.1417
lfingers 7.12502
lthumb 18.4606 376.002
rfemur -2.60998 3.17012 23.1149
rtibia 2.3289
rfoot 157.717 -197.798
rtoes 26.988
lfemur -5.05882 -0.329466 -18.4169
ltibia 4.76374
lfoot -9.3584 -4.03053
ltoes 46.4277
